<?xml version="1.0" encoding="utf-8"?>
<!-- Generator: Adobe Illustrator 22.0.0, SVG Export Plug-In . SVG Version: 6.00 Build 0)  -->
<svg version="1.1" id="Layer_1" xmlns="http://www.w3.org/2000/svg" xmlns:xlink="http://www.w3.org/1999/xlink" x="0px" y="0px"
	 viewBox="0 0 600 600" style="enable-background:new 0 0 600 600;" xml:space="preserve">
<style type="text/css">
	.st0{fill:none;}
	.st1{fill:none;stroke:#FFFFFF;stroke-width:8.5039;stroke-miterlimit:10;}
	.st2{fill:#D23333;stroke:#FFFFFF;stroke-width:8.5039;stroke-miterlimit:10;}
</style>
<rect x="-233.1" y="-1101.3" class="st0" width="1731.9" height="1703.9"/>
<rect x="105.8" y="10.2" class="st0" width="281.7" height="337.6"/>
<path class="st1" d="M262,420.1l-56,55.1l-21.4-21l0,10.6v31.4l0,74.6l75.6,0l40.2,0l-20.1-19.8l129.5-127.4
	c25.2-24.8,41.5-55.1,49-86.9c8-34.2,5.8-70.3-6.8-103.5L262,420.1z"/>
<path class="st2" d="M269.8,232l-52.2,51.4l-52.2,51.4L130,369.5c8.3,15.4,19,29.8,32.2,42.8c13.2,13,27.9,23.5,43.5,31.7l1.3-1.2
	l0,0l86.3-84.9l86.3-84.9l0,0l1.3-1.2c-8.3-15.4-19.1-29.8-32.2-42.8c-13.2-13-27.8-23.5-43.5-31.7L269.8,232z"/>
<path class="st1" d="M291.8,30L162.2,157.4c-27.8,27.3-44.8,61.3-51,96.6c-5.5,31.3-2.5,63.7,8.8,93.7l138.5-136.2l107.5-105.7
	l21.3,21l0-10.6V84.9l0-74.6h-75.6l-40.2,0L291.8,30z"/>
</svg>
